<?xml version="1.0" encoding="UTF-8"?>
<svg id="Layer_1" data-name="Layer 1" xmlns="http://www.w3.org/2000/svg" xmlns:xlink="http://www.w3.org/1999/xlink" viewBox="0 0 456.6 348.2">
  <defs>
    <style>
      .cls-1 {
        fill: none;
      }
      .cls-2 {
        clip-path: url(#clippath-1);
      }
      .cls-3 {
        clip-path: url(#clippath);
      }
    </style>
    <clipPath id="clippath">
      <rect class="cls-1" y="315.6" width="456.6" height="32.6"/>
    </clipPath>
    <clipPath id="clippath-1">
      <rect class="cls-1" x="3.9" y="319.9" width="451.3" height="20.9"/>
    </clipPath>
  </defs>
  <g class="cls-3">
    <g class="cls-2">
      <rect x="12.7" y="322.5" width="431.2" height="16.3"/>
    </g>
  </g>
  <path d="M160.6,3.1v41.4l-94-13.8c-1.9-.2-3.7,1.1-4,3l-5.9,40.4h0l-3.8,26.1h0l-18,123.1-3.4,22.9h0l-6.4,43.4c-.1.9.1,1.9.7,2.6.6.8,1.4,1.2,2.3,1.4l98,14.4h.5c1.7,0,3.3-1.2,3.5-3l6.2-42.2h0l3.4-23.6h0l17.9-122h0l2.9-20v206.8c0,2,1.6,3.6,3.5,3.6h165.6c2,0,3.6-1.6,3.6-3.6V122.3l19.3,122,9.9,62.3c.2.9.7,1.8,1.4,2.3.6.5,1.3.7,2.1.7h.6l59.4-9.5c2-.3,3.3-2.2,3-4.1l-5.7-35.7h0l-4.2-26.8L384.4,15.3c-.1-.9-.6-1.8-1.4-2.3-.8-.6-1.7-.8-2.6-.6l-59.4,9.5c-1.9.3-3.2,2.1-2.9,4.1l8.1,51.2h-59.8V3.1c0-1.4-.8-2.5-1.9-3.1h-101.9c-1.2.5-2,1.7-2,3.1ZM123.6,300.7l-91-13.4,5.3-36.3,90.9,14.4-5.2,35.3ZM129.8,258.3l-90.9-14.4,2.3-15.9,91,13.8-2.4,16.5ZM133.3,234.7l-91-13.8,17-116,90.8,14.7-16.8,115.1ZM151.2,112.6l-90.8-14.7,2.8-19.2,90.9,14.2-2.9,19.7ZM155.1,85.9l-90.9-14.2,4.9-33.5,91,13.4-5,34.3ZM421.4,293.7l-52.4,8.4-4.3-27.2,52.2-9.7,4.5,28.5ZM415.7,258.2l-52.2,9.6-3.3-21.1,52.4-8.5,3.1,20ZM411.5,231.3l-52.4,8.5-21.9-138,52.3-9.3,22,138.8ZM388.4,85.5l-52.3,9.3-2.8-17.3,52.3-9.4,2.8,17.4ZM325.6,28.4l52.4-8.3,6.5,41-52.2,9.5-6.7-42.2ZM266.3,84.3h60v54h-60v-54ZM266.3,145.4h60v20.5h-60v-20.5ZM266.3,173h60v101.1h-60v-101.1ZM266.3,281.2h60v19.2h-60v-19.2ZM167.6,6.6h91.5v24h-91.5V6.6ZM167.6,37.7h91.5v10.6h-91.5v-10.6ZM167.6,55.4h91.5v159.4h-91.5V55.4ZM167.6,221.9h91.5v24.9h-91.5v-24.9ZM167.6,253.8h91.5v46.6h-91.5v-46.6Z"/>
</svg>

